<?xml version="1.0" encoding="utf-8"?>
<!-- Generator: Adobe Illustrator 25.2.3, SVG Export Plug-In . SVG Version: 6.00 Build 0)  -->
<svg version="1.1" id="Layer_1" xmlns="http://www.w3.org/2000/svg" xmlns:xlink="http://www.w3.org/1999/xlink" x="0px" y="0px"
	 viewBox="0 0 130 55" style="enable-background:new 0 0 130 55;" xml:space="preserve">
<style type="text/css">
	.st0{fill:#E91E25;}
	.st1{fill:#FFFFFF;}
	.st2{fill:#8C8E90;}
</style>
<rect x="14.36" y="38.59" class="st0" width="90.11" height="15.62"/>
<path class="st1" d="M40.02,41.79c-1.09-1.22-3.81-1.34-4.84-1.34c-1.05,0-18.35,0-18.35,0s-0.77-0.08-0.77,0.43l0.01,11.2
	c0,0-0.01,0.43,0.49,0.43c0.59,0,1.98,0,1.98,0s0.54,0.05,0.54-0.41c0-0.51-0.04-4.39-0.04-4.39h13.31c0,0,5.12,0.07,6.07-0.21
	c1.9-0.55,2.19-1.84,2.27-2.27S41.11,43.01,40.02,41.79z M37.65,44.53c0,0.4-0.18,0.92-0.67,1.27c-0.72,0.5-1.78,0.4-2.14,0.4
	s-2.22,0-2.22,0s-12.52-0.02-13.07,0s-0.51-0.47-0.51-0.47v-3.44c0-0.43,0.55-0.42,0.55-0.42l8.39,0.03c0,0,4.95-0.06,6.63,0
	s2.27,0.39,2.66,0.75c0.34,0.31,0.37,0.89,0.37,0.93c0-0.02,0-0.04,0-0.04s0,0.01,0,0.02c0,0.02,0,0.03,0,0.02
	C37.65,43.72,37.65,44.22,37.65,44.53z"/>
<path class="st1" d="M69.05,47.61c-0.47-0.32-1.36-0.41-1.64-0.45c-0.21-0.04-0.12-0.2,0.04-0.24c0.08-0.02,1.2-0.24,1.91-0.6
	c0.71-0.37,0.95-1.43,0.95-2.14c0-0.09,0-1.17-0.3-1.76c-0.28-0.56-0.75-1.24-2.31-1.6c-1.56-0.36-3.57-0.37-3.57-0.37H59.2
	c0,0-13.12,0-13.7,0c-0.5,0-0.49,0.43-0.49,0.43v11.31c0,0.34,0.38,0.34,0.38,0.34s1.95,0,2.28,0c0.34,0,0.32-0.42,0.32-0.42
	s-0.03-3.53-0.02-3.97c0.01-0.43,0.38-0.43,0.38-0.43s13.69,0,15.01,0c1.34,0,2.25,0.15,2.86,0.41s0.78,0.86,0.79,1.07
	s0,2.7,0.02,3.04s0.47,0.3,0.47,0.3s1.22,0,1.89,0c0.53,0,0.53-0.43,0.53-0.43s0.05-2.37,0.02-3.04
	C69.93,48.43,69.56,47.95,69.05,47.61z M66.78,45.36c-0.53,0.51-1.64,0.83-3,0.83c-0.51,0-3.56,0-3.56,0H48.36c0,0-0.31,0-0.31-0.24
	v-3.79c0,0,0.02-0.3,0.37-0.3c0.36,0,14.92,0,14.92,0s1.48,0.02,2.41,0.22s1.44,0.65,1.5,1.3C67.31,44.04,67.31,44.85,66.78,45.36z"
	/>
<g>
	<path class="st1" d="M81.94,52.5c-0.39,0-0.61,0-0.61,0S82.49,52.51,81.94,52.5z"/>
	<path class="st1" d="M100.02,41c-1.28-0.51-2.7-0.55-3.83-0.55c-1.39,0-5.86,0-5.86,0h-7.8c0,0-3.83-0.11-5.17,0.37
		c-1.63,0.59-2.74,1.57-2.78,3.46c-0.04,1.88,0,3.32,0,4.58c0,1.26,1.44,2.56,2.39,2.95s2.78,0.66,3.57,0.67
		c0.78,0.01,1.2,0.02,1.4,0.02c0.72,0,2.05,0.01,3.81,0.02c2.72,0.02,7.19,0.02,7.75,0c0.55-0.02,4.1,0.18,5.92-0.42
		c1.82-0.59,1.95-0.87,2.43-1.38c0.47-0.51,0.71-1.41,0.71-1.87c0-0.45,0-3.99,0-4.58C102.54,42.36,101.3,41.51,100.02,41z
		 M99.34,48.71c-0.06,0.65-0.32,1.14-0.71,1.56c-0.39,0.41-1.78,0.84-2.86,0.84c-1.16,0-3.44-0.01-3.44-0.01l-7.35,0.01
		c0,0-2.63,0.01-3.69,0.01c-2.15,0-2.81-0.72-3.18-1.33s-0.37-1.15-0.37-1.15s0-3.16,0-4.35c0-1.52,0.99-1.91,1.63-2.12
		c0.89-0.3,1.92-0.3,1.92-0.3s7.97,0,9.98,0c2.04,0,3.16,0,4.5,0c1.27,0,3.57,0.58,3.57,2.42C99.35,45.7,99.4,48.06,99.34,48.71z"/>
</g>
<g>
	<rect x="14.38" y="0.8" class="st2" width="7.89" height="35.31"/>
	<path class="st2" d="M38.49,17.26c0,0,1.51-0.66,3.2-2.71c1.69-2.05,1.75-4.88,1.75-4.88s0.3-3.26-2.53-6.15
		c-2.83-2.89-6.63-2.71-6.63-2.71h-7.9v0.11l0.12,6.41c0,0,4.87,0.04,5.68,0.28c0.81,0.24,3.26,1.05,3.26,3.42
		c0,1.83-2.31,2.86-2.31,2.86s-1.38,0.58-3.92,0.58c-2.03,0.02-2.71,0.02-2.71,0.02s-0.04,6.1,0.08,6.1s3.35,0.02,5.2,0.2
		c2.23,0.22,4.37,2.3,4.42,4.4c0.05,2.49-3.58,4.08-3.58,4.08c-0.93,0.4-2.17,0.44-3.35,0.42s-2.71-0.02-2.71-0.02l0.02,6.45
		c0,0,6.03,0.01,6.78,0.01c3.14,0,6.05-1.24,7.73-2.81c1.69-1.57,2.71-3.44,3.2-5.61c0.48-2.17,0.24-5.19-1.57-7.6
		C40.9,17.69,38.49,17.26,38.49,17.26z"/>
	<polygon class="st2" points="50.99,36.11 58.81,36.11 58.96,19 50.83,6.03 	"/>
	<polygon class="st2" points="50.99,0.8 73.23,36.11 81.12,36.11 58.97,0.8 	"/>
	<polygon class="st2" points="81.06,0.8 72.94,0.8 72.94,18.29 81.06,31.2 	"/>
	<rect x="84.46" y="0.8" class="st2" width="8.41" height="6.61"/>
	<rect x="107.23" y="0.8" class="st2" width="8.41" height="6.61"/>
	<polygon class="st2" points="95.71,36.11 104.32,36.11 104.32,0.8 95.79,0.8 	"/>
</g>
</svg>
